# xmcd
#
# Track frame offsets: 
#        150
#        5199
#        22096
#        39408
#        53137
#        69634
#        87111
#        104174
#        120679
#        141149
#
# Disc length: 2122 seconds
#
# Revision: 0
# Processed by: cddbd v1.5.2PL0 Copyright (c) Steve Scherf et al.
# Submitted via: ExactAudioCopyFreeDBPlugin 1.0
#
DISCID=8d08480a
DTITLE=Bell Biv DeVoe - Three Stripes
DYEAR=2017
DGENRE=R&B
TTITLE0=Ready (feat. Doug E. Fresh)
TTITLE1=Find a Way
TTITLE2=I'm Betta
TTITLE3=Hot Damn
TTITLE4=Run
TTITLE5=All Dat There
TTITLE6=Don't Go
TTITLE7=Finally (feat. SWV)
TTITLE8=Once More (feat. Boyz II Men)
TTITLE9=Incredible
EXTD=
EXTT0=
EXTT1=
EXTT2=
EXTT3=
EXTT4=
EXTT5=
EXTT6=
EXTT7=
EXTT8=
EXTT9=
PLAYORDER=
